<svg width="96" height="96" xmlns="http://www.w3.org/2000/svg" xmlns:xlink="http://www.w3.org/1999/xlink" xml:space="preserve" overflow="hidden"><g transform="translate(-581 -360)"><path d="M661 394 661 373 654.3 379.7C647.6 373.7 638.7 370 629 370 608 370 591 387 591 408 591 429 608 446 629 446 639.5 446 649 441.7 655.9 434.9L647.4 426.4C642.7 431.1 636.2 434 629 434 614.7 434 603 422.3 603 408 603 393.7 614.7 382 629 382 635.4 382 641.3 384.3 645.8 388.2L640 394 661 394Z" fill="#FFFFFF"/></g></svg>